<svg width="2622" height="829" viewBox="0 0 2622 829" fill="none" xmlns="http://www.w3.org/2000/svg">
<path d="M806.763 746.186H826.868V806.975C818.511 813.598 808.734 818.88 797.538 822.822C786.343 826.765 775.226 828.736 764.188 828.736C748.261 828.736 733.675 825.03 720.429 817.619C707.184 810.05 696.697 799.8 688.971 786.87C681.402 773.782 677.617 759.511 677.617 744.058C677.617 728.604 681.481 714.491 689.207 701.719C696.934 688.788 707.499 678.617 720.902 671.206C734.306 663.795 749.128 660.089 765.37 660.089C776.881 660.089 788.077 662.139 798.958 666.239C809.996 670.339 819.536 675.937 827.578 683.033L814.569 699.59C807.946 693.44 800.298 688.709 791.625 685.398C783.11 681.929 774.358 680.194 765.37 680.194C753.544 680.194 742.663 683.033 732.729 688.709C722.795 694.386 714.91 702.113 709.076 711.889C703.399 721.666 700.561 732.389 700.561 744.058C700.561 755.727 703.478 766.528 709.312 776.462C715.147 786.239 723.031 794.045 732.965 799.879C742.9 805.556 753.78 808.394 765.607 808.394C772.545 808.394 779.562 807.29 786.658 805.083C793.912 802.717 800.613 799.485 806.763 795.385V746.186Z" fill="black"/>
<path d="M1087.52 827.08L1070.02 786.87H982.737L965.47 827.08H941.58L1015.14 661.508H1038.79L1112.12 827.08H1087.52ZM991.725 766.292H1061.26L1026.26 685.871L991.725 766.292Z" fill="black"/>
<path d="M1230.76 661.508H1257.72L1318.28 777.882L1378.35 661.508H1405.56V827.08H1384.27L1384.03 694.859L1325.14 809.577H1311.18L1251.81 694.859V827.08H1230.76V661.508Z" fill="black"/>
<path d="M1547.58 661.508H1662.54V682.087H1570.29V733.177H1652.84V753.755H1570.29V806.502H1665.37V827.08H1547.58V661.508Z" fill="black"/>
<path d="M1893.47 696.042C1885.74 691.154 1877.7 687.527 1869.34 685.161C1861.14 682.638 1853.57 681.377 1846.63 681.377C1837.01 681.377 1829.29 683.269 1823.45 687.054C1817.78 690.681 1814.94 695.726 1814.94 702.192C1814.94 708.026 1816.67 712.836 1820.14 716.62C1823.61 720.247 1827.87 723.164 1832.91 725.372C1837.96 727.422 1844.98 729.866 1853.97 732.704C1865.16 736.173 1874.23 739.485 1881.17 742.638C1888.1 745.792 1894.02 750.523 1898.91 756.83C1903.79 762.98 1906.24 771.18 1906.24 781.43C1906.24 790.891 1903.64 799.169 1898.43 806.265C1893.39 813.361 1886.21 818.88 1876.91 822.822C1867.76 826.607 1857.2 828.499 1845.21 828.499C1833.07 828.499 1821.24 826.134 1809.73 821.403C1798.22 816.673 1788.29 810.365 1779.93 802.481L1790.1 782.849C1797.99 790.575 1806.82 796.568 1816.59 800.825C1826.53 804.925 1836.15 806.975 1845.45 806.975C1856.49 806.975 1865.16 804.846 1871.47 800.589C1877.93 796.173 1881.17 790.26 1881.17 782.849C1881.17 777.014 1879.43 772.205 1875.96 768.42C1872.49 764.636 1868.08 761.64 1862.72 759.432C1857.51 757.224 1850.42 754.78 1841.43 752.1C1830.39 748.788 1821.4 745.556 1814.46 742.402C1807.53 739.248 1801.61 734.596 1796.72 728.447C1791.99 722.297 1789.63 714.176 1789.63 704.084C1789.63 695.253 1792.07 687.448 1796.96 680.667C1801.85 673.887 1808.71 668.683 1817.54 665.056C1826.37 661.43 1836.62 659.616 1848.29 659.616C1858.22 659.616 1867.92 661.114 1877.38 664.11C1887 666.949 1895.52 670.812 1902.93 675.7L1893.47 696.042Z" fill="black"/>
<path d="M785.463 747.534H824.885V767.245H785.463V747.534Z" fill="black"/>
<path d="M189 340.2H148.68V451.08H0V10.08H212.31C253.05 10.08 288.54 16.8 318.78 30.24C349.02 43.68 372.33 63 388.71 88.2C405.09 113.4 413.28 142.8 413.28 176.4C413.28 207.9 406.14 235.41 391.86 258.93C377.58 282.45 357 301.14 330.12 315L422.73 451.08H263.97L189 340.2ZM263.34 176.4C263.34 160.02 258.3 147.42 248.22 138.6C238.14 129.36 223.02 124.74 202.86 124.74H148.68V228.06H202.86C223.02 228.06 238.14 223.65 248.22 214.83C258.3 205.59 263.34 192.78 263.34 176.4Z" fill="black"/>
<path d="M836.084 338.94V451.08H469.424V10.08H827.894V122.22H615.584V173.88H802.064V280.98H615.584V338.94H836.084Z" fill="black"/>
<path d="M1358.41 10.08L1171.93 451.08H1025.77L839.288 10.08H999.308L1104.52 267.75L1212.25 10.08H1358.41Z" fill="black"/>
<path d="M1597.65 461.16C1550.19 461.16 1507.56 451.29 1469.76 431.55C1431.96 411.81 1402.35 384.51 1380.93 349.65C1359.51 314.37 1348.8 274.68 1348.8 230.58C1348.8 186.48 1359.51 147 1380.93 112.14C1402.35 76.86 1431.96 49.35 1469.76 29.61C1507.56 9.87 1550.19 0 1597.65 0C1645.11 0 1687.74 9.87 1725.54 29.61C1763.34 49.35 1792.95 76.86 1814.37 112.14C1835.79 147 1846.5 186.48 1846.5 230.58C1846.5 274.68 1835.79 314.37 1814.37 349.65C1792.95 384.51 1763.34 411.81 1725.54 431.55C1687.74 451.29 1645.11 461.16 1597.65 461.16ZM1597.65 340.83C1616.13 340.83 1632.72 336.42 1647.42 327.6C1662.54 318.36 1674.51 305.55 1683.33 289.17C1692.15 272.37 1696.56 252.84 1696.56 230.58C1696.56 208.32 1692.15 189 1683.33 172.62C1674.51 155.82 1662.54 143.01 1647.42 134.19C1632.72 124.95 1616.13 120.33 1597.65 120.33C1579.17 120.33 1562.37 124.95 1547.25 134.19C1532.55 143.01 1520.79 155.82 1511.97 172.62C1503.15 189 1498.74 208.32 1498.74 230.58C1498.74 252.84 1503.15 272.37 1511.97 289.17C1520.79 305.55 1532.55 318.36 1547.25 327.6C1562.37 336.42 1579.17 340.83 1597.65 340.83Z" fill="black"/>
<path d="M1900.46 10.08H2049.14V335.79H2248.22V451.08H1900.46V10.08Z" fill="black"/>
<path d="M2343.83 125.37H2214.68V10.08H2621.66V125.37H2492.51V451.08H2343.83V125.37Z" fill="black"/>
</svg>
